<svg width="512" height="512" viewBox="0 0 512 512" fill="none" xmlns="http://www.w3.org/2000/svg">
<path d="M258.33 422.869C212.372 420.869 196.339 405.036 194.067 397.369C172.006 277.499 173.5 210.504 258.331 229.868M258.33 422.869L258.331 229.868M258.33 422.869C304.287 420.869 320.195 405.308 322.467 397.641C361.5 203.5 266.5 229.868 258.331 229.868" stroke="black" stroke-width="20"/>
<path d="M258.33 422.869C212.372 420.869 196.339 405.036 194.067 397.369C172.006 277.499 173.5 210.504 258.331 229.868L258.33 422.869Z" fill="white"/>
<path d="M258.33 422.869C304.287 420.869 320.195 405.308 322.467 397.641C361.5 203.5 266.5 229.868 258.331 229.868L258.33 422.869Z" fill="white"/>
<path d="M145.624 359.873C142.394 347.411 161.656 285.05 171.691 255.427C181.159 257.058 185.037 255.978 188.424 255.476C185.623 259.935 187.962 314.683 193.296 335.122C197.342 350.624 198.1 375.352 194.031 406.282C171.339 401.05 149.661 375.449 145.624 359.873Z" stroke="black" stroke-width="20"/>
<path d="M145.624 359.873C142.394 347.411 161.656 285.05 171.691 255.427C181.159 257.058 185.037 255.978 188.424 255.476C185.623 259.935 187.962 314.683 193.296 335.122C197.342 350.624 198.1 375.352 194.031 406.282C171.339 401.05 149.661 375.449 145.624 359.873Z" fill="#D8D8D8"/>
<path d="M145.624 359.873C142.394 347.411 161.656 285.05 171.691 255.427C181.159 257.058 185.037 255.978 188.424 255.476C185.623 259.935 187.962 314.683 193.296 335.122C197.342 350.624 198.1 375.352 194.031 406.282C171.339 401.05 149.661 375.449 145.624 359.873Z" fill="url(#paint0_linear_702_9824)" fill-opacity="0.7"/>
<path d="M372.169 354.387C374.712 341.765 351.461 280.551 339.518 251.521C330 253.671 325.998 252.807 322.529 252.492C325.638 256.79 326.502 311.592 322.295 332.297C319.104 348.001 319.797 372.736 325.759 403.399C348.493 396.924 368.991 370.164 372.169 354.387Z" stroke="black" stroke-width="20"/>
<path d="M372.169 354.387C374.712 341.765 351.461 280.551 339.518 251.521C330 253.671 325.998 252.807 322.529 252.492C325.638 256.79 326.502 311.592 322.295 332.297C319.104 348.001 319.797 372.736 325.759 403.399C348.493 396.924 368.991 370.164 372.169 354.387Z" fill="#D8D8D8"/>
<path d="M372.169 354.387C374.712 341.765 351.461 280.551 339.518 251.521C330 253.671 325.998 252.807 322.529 252.492C325.638 256.79 326.502 311.592 322.295 332.297C319.104 348.001 319.797 372.736 325.759 403.399C348.493 396.924 368.991 370.164 372.169 354.387Z" fill="url(#paint1_linear_702_9824)" fill-opacity="0.7"/>
<path d="M258.745 262.442C255.011 262.442 247.064 262.042 245.144 260.444C242.744 258.446 222.9 258.446 220.5 260.444C218.1 262.442 209.943 355.856 227.543 390.824C236.501 394.021 252.076 394.154 258.745 393.821M258.4 262.442C262.133 262.442 270.08 262.042 272 260.444C274.4 258.446 294.1 258.446 296.5 260.444C298.9 262.442 307.202 355.856 289.601 390.824C280.643 394.021 265.068 394.154 258.4 393.821" stroke="black" stroke-width="20"/>
<path d="M234.403 260.444C236.295 262.019 254.472 262.43 258.574 262.442C262.655 262.43 280.112 262.019 282.004 260.444C284.404 258.446 294.004 258.446 296.404 260.444C298.804 262.442 307.204 355.856 289.603 390.824C280.722 393.993 265.335 394.151 258.574 393.829C251.813 394.151 236.426 393.993 227.545 390.824C209.945 355.856 217.602 262.442 220.002 260.444C222.402 258.446 232.003 258.446 234.403 260.444Z" fill="#D8D8D8"/>
<path d="M234.403 260.444C236.295 262.019 254.472 262.43 258.574 262.442C262.655 262.43 280.112 262.019 282.004 260.444C284.404 258.446 294.004 258.446 296.404 260.444C298.804 262.442 307.204 355.856 289.603 390.824C280.722 393.993 265.335 394.151 258.574 393.829C251.813 394.151 236.426 393.993 227.545 390.824C209.945 355.856 217.602 262.442 220.002 260.444C222.402 258.446 232.003 258.446 234.403 260.444Z" fill="url(#paint2_linear_702_9824)" fill-opacity="0.7"/>
<path d="M196.82 256.158C182.643 256.158 183.925 252.533 178.767 253.051C167.167 254.215 169.734 261.333 178.769 261.854C187.807 262.374 296.245 261.338 303.95 261.338C313.512 261.338 311.79 257.191 307.87 256.158C298.895 255.122 208.426 256.158 196.82 256.158Z" stroke="black" stroke-width="13"/>
<path d="M322.824 251.128C336.648 251.128 335.398 247.537 340.427 248.05C351.737 249.204 349.235 256.255 340.425 256.771C331.612 257.286 296.387 256.771 288.874 256.771C279.551 256.771 281.23 252.662 285.052 251.639C293.804 250.613 311.507 251.128 322.824 251.128Z" stroke="black" stroke-width="13"/>
<path d="M298.554 174V166.5H298.391L298.229 166.507L298.554 174ZM215.451 174L215.671 166.503L214.241 166.461L212.896 166.949L215.451 174ZM309.636 187.554L315.154 192.634L315.156 192.631L309.636 187.554ZM309.616 187.575L304.397 182.188L296.082 190.246L306.835 194.54L309.616 187.575ZM346.38 243.749L349.32 250.649L352.72 249.2L353.643 245.621L346.38 243.749ZM300.596 246.923L300.643 239.423L300.619 239.423H300.596V246.923ZM300.595 246.923L300.548 254.423L300.572 254.423H300.595V246.923ZM256.887 246.762L256.888 239.262L256.886 239.262L256.887 246.762ZM213.178 246.923V254.423H213.202L213.225 254.423L213.178 246.923ZM213.178 246.923V239.423H213.154L213.131 239.423L213.178 246.923ZM167.394 243.749L160.131 245.621L161.053 249.2L164.454 250.649L167.394 243.749ZM205.577 187.025L208.21 194.048L214.964 191.516L212.697 184.668L205.577 187.025ZM298.229 166.507C270.812 167.699 232.725 167.004 215.671 166.503L215.231 181.497C232.346 182 270.888 182.71 298.88 181.493L298.229 166.507ZM315.156 192.631C318.203 189.319 318.049 185.151 317.618 182.809C317.131 180.159 315.94 177.586 314.424 175.389C311.486 171.129 305.993 166.5 298.554 166.5V181.5C299.427 181.5 300.86 182.142 302.077 183.906C302.64 184.722 302.834 185.348 302.866 185.523C302.88 185.599 302.818 185.349 302.901 184.858C302.988 184.343 303.27 183.396 304.116 182.477L315.156 192.631ZM314.835 192.961C314.941 192.858 315.047 192.75 315.154 192.634L304.118 182.474C304.212 182.372 304.306 182.277 304.397 182.188L314.835 192.961ZM353.643 245.621C358.276 227.642 352.502 212.929 343.307 202.094C334.323 191.507 322.002 184.445 312.398 180.609L306.835 194.54C314.99 197.796 324.959 203.655 331.871 211.8C338.573 219.697 342.3 229.526 339.117 241.878L353.643 245.621ZM300.549 254.423C317.54 254.53 327.336 254.596 333.829 254.181C340.843 253.732 344.544 252.684 349.32 250.649L343.44 236.85C340.21 238.226 338.172 238.873 332.871 239.212C327.049 239.584 317.956 239.532 300.643 239.423L300.549 254.423ZM300.595 254.423H300.596V239.423H300.595V254.423ZM256.886 254.262C275.383 254.265 289.544 254.354 300.548 254.423L300.643 239.423C289.634 239.354 275.434 239.265 256.888 239.262L256.886 254.262ZM213.225 254.423C224.23 254.354 238.39 254.265 256.888 254.262L256.886 239.262C238.339 239.265 224.14 239.354 213.131 239.423L213.225 254.423ZM213.178 254.423H213.178V239.423H213.178V254.423ZM164.454 250.649C169.229 252.684 172.931 253.732 179.945 254.181C186.437 254.596 196.234 254.53 213.225 254.423L213.131 239.423C195.817 239.532 186.724 239.584 180.902 239.212C175.602 238.873 173.563 238.226 170.334 236.85L164.454 250.649ZM202.944 180.002C193.337 183.604 180.6 190.582 171.21 201.235C161.604 212.133 155.368 227.137 160.131 245.621L174.656 241.878C171.392 229.21 175.396 219.17 182.462 211.153C189.745 202.891 200.114 197.083 208.21 194.048L202.944 180.002ZM212.896 166.949C210.062 167.976 206.028 170.134 202.854 173.343C199.678 176.555 196.107 182.282 198.457 189.382L212.697 184.668C212.695 184.661 212.716 184.731 212.713 184.846C212.71 184.953 212.689 185.007 212.697 184.985C212.729 184.895 212.912 184.505 213.52 183.89C214.811 182.585 216.794 181.491 218.006 181.051L212.896 166.949Z" fill="black"/>
<path d="M208.564 186.035C191.3 191.555 158.896 210.826 167.395 243.748C175.411 247.157 178.889 247.135 213.237 246.92C224.257 246.85 238.455 246.761 257 246.759C275.545 246.761 289.743 246.85 300.763 246.92C335.111 247.135 338.589 247.157 346.605 243.748C355.104 210.826 322.7 191.555 305.436 186.035C295.191 186.035 286.803 185.404 279.122 189.533C275.735 189.533 272.961 189.533 272.167 189.533H253.431C252.637 189.533 248.078 189.533 243.8 189.533C236.119 185.404 218.809 186.035 208.564 186.035Z" fill="#D8D8D8"/>
<path d="M208.564 186.035C191.3 191.555 158.896 210.826 167.395 243.748C175.411 247.157 178.889 247.135 213.237 246.92C224.257 246.85 238.455 246.761 257 246.759C275.545 246.761 289.743 246.85 300.763 246.92C335.111 247.135 338.589 247.157 346.605 243.748C355.104 210.826 322.7 191.555 305.436 186.035C295.191 186.035 286.803 185.404 279.122 189.533C275.735 189.533 272.961 189.533 272.167 189.533H253.431C252.637 189.533 248.078 189.533 243.8 189.533C236.119 185.404 218.809 186.035 208.564 186.035Z" fill="url(#paint3_linear_702_9824)" fill-opacity="0.2"/>
<path d="M195.649 255.857C181.5 255.857 181.245 253.528 176.097 254.086C164.521 255.342 168.612 260.055 177.63 260.616C186.649 261.178 246.275 262 253.964 262C263.507 262 261.789 257.527 257.876 256.412C248.919 255.296 207.232 255.857 195.649 255.857Z" fill="#F8F8F8"/>
<path d="M320.673 256.253C334.42 256.253 335.381 254.579 340.383 255.101C351.63 256.276 346.942 260.181 338.18 260.706C329.417 261.231 260.307 262 252.836 262C243.564 262 245.234 257.815 249.035 256.773C257.738 255.728 309.42 256.253 320.673 256.253Z" fill="#F8F8F8"/>
<path d="M298.214 174C270.547 175.205 232.285 174.502 215.224 174C211.074 175.506 202.775 180.777 205.56 187.554C226.309 195.837 306.514 190.566 309.28 187.554C312.047 184.542 306.514 174 298.214 174Z" stroke="black" stroke-width="10"/>
<path d="M298.214 174C270.547 175.205 232.285 174.502 215.224 174C211.074 175.506 202.775 180.777 205.56 187.554C226.309 195.837 306.514 190.566 309.28 187.554C312.047 184.542 306.514 174 298.214 174Z" fill="#D8D8D8"/>
<path d="M298.214 174C270.547 175.205 232.285 174.502 215.224 174C211.074 175.506 202.775 180.777 205.56 187.554C226.309 195.837 306.514 190.566 309.28 187.554C312.047 184.542 306.514 174 298.214 174Z" fill="url(#paint4_linear_702_9824)" fill-opacity="0.2"/>
<defs>
<linearGradient id="paint0_linear_702_9824" x1="165.155" y1="295.221" x2="194.28" y2="491.891" gradientUnits="userSpaceOnUse">
<stop stop-opacity="0"/>
<stop offset="1" stop-color="#9D9D9D"/>
</linearGradient>
<linearGradient id="paint1_linear_702_9824" x1="348.51" y1="290.901" x2="330.572" y2="488.904" gradientUnits="userSpaceOnUse">
<stop stop-opacity="0"/>
<stop offset="1" stop-color="#9D9D9D"/>
</linearGradient>
<linearGradient id="paint2_linear_702_9824" x1="258.57" y1="292.945" x2="258.57" y2="468.945" gradientUnits="userSpaceOnUse">
<stop stop-opacity="0"/>
<stop offset="1" stop-color="#9D9D9D"/>
</linearGradient>
<linearGradient id="paint3_linear_702_9824" x1="257" y1="201.363" x2="257" y2="280.889" gradientUnits="userSpaceOnUse">
<stop stop-opacity="0"/>
<stop offset="1" stop-color="#9D9D9D"/>
</linearGradient>
<linearGradient id="paint4_linear_702_9824" x1="257.5" y1="178.533" x2="257.5" y2="202" gradientUnits="userSpaceOnUse">
<stop stop-opacity="0"/>
<stop offset="1" stop-color="#9D9D9D"/>
</linearGradient>
</defs>
</svg>
