<svg width="512" height="512" viewBox="0 0 512 512" fill="none" xmlns="http://www.w3.org/2000/svg">
<path d="M222.276 429.249C195.426 429.385 191.837 412.99 193.014 405.603C201.085 353.244 287.995 285.512 294.704 290.965C301.412 296.418 313.291 360.524 301.532 383.333C289.773 406.142 290.29 417.99 280.29 421.747C273.79 424.188 256.425 427.37 222.276 429.249Z" stroke="black" stroke-width="15"/>
<path d="M222.78 429.752C195.972 431.244 191.839 412.994 193.016 405.606C201.086 353.248 287.997 285.516 294.705 290.969C301.414 296.422 313.293 360.528 301.533 383.337C289.774 406.146 289.289 418.43 277.789 422.75C273.017 424.543 258.802 427.747 222.78 429.752Z" fill="white"/>
<path d="M188.021 403.129C191.891 398.888 255.484 295.674 286.797 244.598C287.505 243.909 287.833 242.386 283.485 241.805C268.954 243.303 212.123 243.831 209.172 246.097C206.222 248.364 142.652 325.181 138.404 329.309C134.157 333.438 124.83 338.294 119.767 349.829C137.048 370.308 131.968 371.036 142.625 385.93C153.281 400.823 173.496 408.229 175.387 408.796C177.279 409.362 183.185 408.431 188.021 403.129Z" stroke="black" stroke-width="20"/>
<path d="M320.766 242.193C315.566 241.9 268.591 249.818 266.908 250.064C260.238 257.357 226.537 385.512 226.964 400.195C241.408 404.93 325.647 397.434 330.372 396.141C334.505 395.011 341.626 390.81 347.756 385.702C346.701 378.483 329.834 257.194 329.006 251.522C328.177 245.85 325.966 242.486 320.766 242.193Z" stroke="black" stroke-width="20"/>
<path d="M320.797 242.201C315.597 241.908 268.622 249.826 266.939 250.072C260.269 257.365 226.568 385.52 226.995 400.203C241.439 404.938 325.678 397.442 330.403 396.149C334.536 395.019 341.657 390.818 347.787 385.709C346.732 378.491 329.866 257.202 329.037 251.53C328.208 245.858 325.997 242.494 320.797 242.201Z" fill="#D8D8D8"/>
<path d="M320.797 242.201C315.597 241.908 268.622 249.826 266.939 250.072C260.269 257.365 226.568 385.52 226.995 400.203C241.439 404.938 325.678 397.442 330.403 396.149C334.536 395.019 341.657 390.818 347.787 385.709C346.732 378.491 329.866 257.202 329.037 251.53C328.208 245.858 325.997 242.494 320.797 242.201Z" fill="url(#paint0_linear_702_9866)" fill-opacity="0.7"/>
<path d="M188.02 403.121C191.889 398.88 256.536 296.402 287.849 245.326C293.03 236.873 288.194 242.351 280.116 242.61C220.501 244.519 212.121 243.823 209.171 246.089C206.22 248.356 142.65 325.173 138.403 329.301C134.156 333.43 124.829 338.287 119.765 349.821C137.047 370.3 131.967 371.028 142.623 385.922C153.279 400.815 173.495 408.221 175.386 408.788C177.277 409.354 183.184 408.423 188.02 403.121Z" stroke="black" stroke-width="3"/>
<path d="M188.02 403.122C191.889 398.881 255.482 295.667 286.795 244.591C287.503 243.902 287.831 242.379 283.483 241.798C223.699 251.795 212.121 243.824 209.17 246.09C206.22 248.357 142.65 325.174 138.403 329.303C134.155 333.431 124.828 338.288 119.765 349.822C137.046 370.301 131.967 371.029 142.623 385.923C153.279 400.816 173.494 408.222 175.386 408.789C177.277 409.355 183.183 408.424 188.02 403.122Z" fill="#D8D8D8"/>
<path d="M188.02 403.122C191.889 398.881 255.482 295.667 286.795 244.591C287.503 243.902 287.831 242.379 283.483 241.798C223.699 251.795 212.121 243.824 209.17 246.09C206.22 248.357 142.65 325.174 138.403 329.303C134.155 333.431 124.828 338.288 119.765 349.822C137.046 370.301 131.967 371.029 142.623 385.923C153.279 400.816 173.494 408.222 175.386 408.789C177.277 409.355 183.183 408.424 188.02 403.122Z" fill="url(#paint1_linear_702_9866)" fill-opacity="0.7"/>
<path d="M297.776 198.87C271.712 201.513 206.261 196.268 195.261 197.269C176.263 206.271 175.729 227.091 173.755 233.267C171.571 240.1 171.395 255.066 177.042 254.384C182.69 253.702 191.982 254.096 197.971 255.394C273.606 259.397 309.153 251.566 317.848 248.495C326.543 245.423 331.658 248.343 335.579 244.332C339.5 240.321 331.868 209.407 329.353 208.195C326.838 206.983 317.042 203.618 297.776 198.87Z" stroke="black" stroke-width="15"/>
<path d="M310.94 186.497C267.622 176.895 221.609 180.693 205.412 183.384C204.573 193.797 195.889 194.687 196.197 196.203C205.703 199.359 246.634 197.213 262.554 195.582C273.198 197.073 286.327 196.244 298.11 196.069C309.894 195.894 332.21 203.932 332.108 203.426C332.005 202.921 334.909 195.4 310.94 186.497Z" stroke="black" stroke-width="15"/>
<path d="M327.503 251.712C279.75 266.669 211.393 260.682 183.185 255.818C180.988 255.451 174.498 261.101 175.418 266.434C203.146 278.816 319.509 267.196 325.369 264.069C331.228 260.942 337.518 254.133 327.503 251.712Z" stroke="black" stroke-width="15"/>
<path d="M297.775 198.864C271.711 201.506 212.943 197.472 199.282 196.258C180.243 199.568 175.754 226.082 173.78 232.258C171.596 239.091 171.394 255.06 177.041 254.378C182.689 253.696 191.981 254.09 197.969 255.388C273.605 259.391 309.152 251.56 317.847 248.489C326.542 245.417 331.657 248.337 335.578 244.326C339.499 240.315 331.867 209.401 329.352 208.188C326.837 206.976 317.041 203.611 297.775 198.864Z" fill="#F8F8F8"/>
<path d="M310.946 186.498C267.628 176.895 221.616 180.694 205.419 183.385C205.419 188.75 198.206 192.235 198.514 193.752C213.788 191.75 245.915 196.07 262.56 195.583C273.205 197.073 286.333 196.244 298.117 196.07C309.901 195.895 332.217 203.932 332.114 203.427C332.012 202.921 334.916 195.401 310.946 186.498Z" fill="#F8F8F8"/>
<path d="M327.503 251.712C279.75 266.669 211.393 260.682 183.185 255.818C180.988 255.451 174.498 261.101 175.418 266.434C203.146 278.816 319.509 267.196 325.369 264.069C331.228 260.942 337.518 254.133 327.503 251.712Z" fill="#F8F8F8"/>
<defs>
<linearGradient id="paint0_linear_702_9866" x1="272.489" y1="288.049" x2="301.566" y2="487.009" gradientUnits="userSpaceOnUse">
<stop stop-opacity="0"/>
<stop offset="1" stop-color="#9D9D9D"/>
</linearGradient>
<linearGradient id="paint1_linear_702_9866" x1="201.124" y1="287.041" x2="247.876" y2="478.033" gradientUnits="userSpaceOnUse">
<stop stop-opacity="0"/>
<stop offset="1" stop-color="#9D9D9D"/>
</linearGradient>
</defs>
</svg>
