<svg width="512" height="512" viewBox="0 0 512 512" fill="none" xmlns="http://www.w3.org/2000/svg">
<path d="M257.331 426.501C211.374 424.501 195.341 408.668 193.069 401.001C165.806 353.001 223.652 321.607 256.433 311.773M257.331 426.501L256.433 311.773M257.331 426.501C303.289 424.501 319.196 408.94 321.468 401.273C348.731 353.273 289.213 321.607 256.433 311.773" stroke="black" stroke-width="20"/>
<path d="M257.328 426.504C211.371 424.504 195.337 408.671 193.066 401.004C165.803 353.004 160.95 214.001 257.33 233.503L257.328 426.504Z" fill="white"/>
<path d="M257.328 426.504C303.285 424.504 319.193 408.943 321.465 401.277C348.728 353.277 351.471 214.5 257.33 233.503L257.328 426.504Z" fill="white"/>
<path d="M145.048 359.5C143.679 346.7 171.869 287.833 186.135 260C195.262 263 199.256 262.5 202.68 262.5C199.256 266.5 193.55 321 195.832 342C197.564 357.928 194.691 382.5 186.135 412.5C164.454 404 146.76 375.5 145.048 359.5Z" stroke="black" stroke-width="20"/>
<path d="M145.048 359.5C143.679 346.7 171.869 287.833 186.135 260C195.262 263 199.256 262.5 202.68 262.5C199.256 266.5 193.55 321 195.832 342C197.564 357.928 194.691 382.5 186.135 412.5C164.454 404 146.76 375.5 145.048 359.5Z" fill="#D8D8D8"/>
<path d="M145.048 359.5C143.679 346.7 171.869 287.833 186.135 260C195.262 263 199.256 262.5 202.68 262.5C199.256 266.5 193.55 321 195.832 342C197.564 357.928 194.691 382.5 186.135 412.5C164.454 404 146.76 375.5 145.048 359.5Z" fill="url(#paint0_linear_702_9761)" fill-opacity="0.7"/>
<path d="M366.951 359.5C368.344 346.7 339.666 287.833 325.152 260C315.867 263 311.804 262.5 308.32 262.5C311.804 266.5 317.609 321 315.287 342C313.525 357.928 316.448 382.5 325.152 412.5C347.209 404 365.209 375.5 366.951 359.5Z" stroke="black" stroke-width="20"/>
<path d="M366.951 359.5C368.344 346.7 339.666 287.833 325.152 260C315.867 263 311.804 262.5 308.32 262.5C311.804 266.5 317.609 321 315.287 342C313.525 357.928 316.448 382.5 325.152 412.5C347.209 404 365.209 375.5 366.951 359.5Z" fill="#D8D8D8"/>
<path d="M366.951 359.5C368.344 346.7 339.666 287.833 325.152 260C315.867 263 311.804 262.5 308.32 262.5C311.804 266.5 317.609 321 315.287 342C313.525 357.928 316.448 382.5 325.152 412.5C347.209 404 365.209 375.5 366.951 359.5Z" fill="url(#paint1_linear_702_9761)" fill-opacity="0.7"/>
<path d="M256.165 266.497C252.584 266.497 244.961 266.097 243.119 264.499C240.816 262.5 231.607 262.5 229.304 264.499C227.002 266.497 209.35 359.911 226.235 394.878C234.827 398.075 249.769 398.209 256.165 397.876M255.835 266.497C259.416 266.497 267.039 266.097 268.881 264.499C271.184 262.5 280.393 262.5 282.696 264.499C284.998 266.497 302.65 359.911 285.765 394.878C277.173 398.075 262.231 398.209 255.835 397.876" stroke="black" stroke-width="20"/>
<path d="M243.119 264.499C244.933 266.073 252.354 266.484 256 266.496C259.646 266.484 267.067 266.073 268.881 264.499C271.184 262.5 280.393 262.5 282.696 264.499C284.998 266.497 302.65 359.911 285.765 394.878C277.246 398.048 262.486 398.206 256 397.884C249.514 398.206 234.754 398.048 226.235 394.878C209.35 359.911 227.002 266.497 229.304 264.499C231.607 262.5 240.816 262.5 243.119 264.499Z" fill="#D8D8D8"/>
<path d="M243.119 264.499C244.933 266.073 252.354 266.484 256 266.496C259.646 266.484 267.067 266.073 268.881 264.499C271.184 262.5 280.393 262.5 282.696 264.499C284.998 266.497 302.65 359.911 285.765 394.878C277.246 398.048 262.486 398.206 256 397.884C249.514 398.206 234.754 398.048 226.235 394.878C209.35 359.911 227.002 266.497 229.304 264.499C231.607 262.5 240.816 262.5 243.119 264.499Z" fill="url(#paint2_linear_702_9761)" fill-opacity="0.7"/>
<path d="M226.163 265.5C219.968 250.652 224.229 219.1 228.101 207.5C229.392 207.5 229.386 208.66 230.031 212.14C223.836 219.564 226.59 249.26 228.741 263.18C228.526 263.953 227.709 265.5 226.163 265.5Z" fill="black"/>
<path d="M212.625 233.176C211.524 232.3 211.939 229.647 213.998 229.348C235.321 225.51 240.136 235.913 235.321 236.459C233.257 236.693 231.881 235.913 232.569 234.271C233.657 231.675 216.315 231.042 216.749 232.081C217.437 233.724 214 234.27 212.625 233.176Z" fill="black"/>
<path d="M212.625 224.76C211.524 223.775 211.939 220.79 213.998 220.454C235.321 216.136 240.136 227.84 235.321 228.454C233.257 228.718 231.881 227.84 232.569 225.993C233.657 223.072 216.315 222.36 216.749 223.529C217.437 225.377 214 225.991 212.625 224.76Z" fill="black"/>
<path d="M201.038 188.5C186.932 194.024 157.088 221.56 164.032 254.5C170.581 257.911 190.134 262.635 218.197 262.42C227.201 262.35 238.802 262.261 253.955 262.259C269.107 262.261 280.708 262.35 289.712 262.42C317.776 262.635 341.483 257.911 348.032 254.5C354.977 221.56 327.637 194.024 313.531 188.5C305.16 188.5 274.66 208.411 268.385 212.542C265.709 214.304 263.801 215.56 263.152 215.56H244.757C244.108 215.56 242.2 214.304 239.525 212.542C233.249 208.411 209.409 188.5 201.038 188.5Z" stroke="black" stroke-width="20"/>
<path d="M199.5 188C185.394 193.524 158.453 212.806 165.397 245.746C171.946 249.157 190.135 262.635 218.199 262.42C227.203 262.35 238.804 262.261 253.956 262.259C269.109 262.261 280.709 262.35 289.713 262.42C317.777 262.635 340.121 249.157 346.67 245.746C353.615 212.806 327.139 193.524 313.033 188C304.662 188 274.662 208.411 268.386 212.542C265.71 214.304 263.802 215.56 263.154 215.56H244.759C244.11 215.56 242.202 214.304 239.526 212.542C233.25 208.411 207.871 188 199.5 188Z" fill="#F8F8F8"/>
<path d="M321.732 266.628C338.901 266.628 337.348 263.037 343.595 263.55C357.642 264.704 354.534 271.755 343.592 272.271C332.647 272.786 288.899 272.271 279.569 272.271C267.989 272.271 270.074 268.162 274.822 267.139C285.691 266.113 307.678 266.628 321.732 266.628Z" stroke="black" stroke-width="13"/>
<path d="M321.732 266.628C338.901 266.628 337.348 263.037 343.595 263.55C357.642 264.704 354.534 271.755 343.592 272.271C332.647 272.786 288.899 272.271 279.569 272.271C267.989 272.271 270.074 268.162 274.822 267.139C285.691 266.113 307.678 266.628 321.732 266.628Z" fill="#F8F8F8"/>
<path d="M191.436 266.628C173.626 266.628 175.236 263.037 168.756 263.55C154.185 264.704 157.409 271.755 168.76 272.271C180.114 272.786 225.496 272.271 235.175 272.271C247.187 272.271 245.024 268.162 240.099 267.139C228.824 266.113 206.016 266.628 191.436 266.628Z" stroke="black" stroke-width="13"/>
<path d="M191.436 266.628C173.626 266.628 175.236 263.037 168.756 263.55C154.185 264.704 157.409 271.755 168.76 272.271C180.114 272.786 225.496 272.271 235.175 272.271C247.187 272.271 245.024 268.162 240.099 267.139C228.824 266.113 206.016 266.628 191.436 266.628Z" fill="#F8F8F8"/>
<path d="M256.634 260.766C254.528 261.903 250.13 264.278 249.221 267.5C248.655 269.5 249.468 272.5 250.207 273.5C251.664 275.471 252.649 275.985 256.929 276.478C256.934 276.478 256.938 276.483 256.938 276.488V276.488C256.938 276.495 256.944 276.499 256.95 276.499C256.974 276.496 256.999 276.493 257.023 276.49C257.028 276.49 257.034 276.49 257.04 276.49C257.064 276.493 257.088 276.496 257.112 276.499C257.119 276.499 257.124 276.495 257.124 276.488V276.488C257.124 276.483 257.128 276.478 257.134 276.478C261.414 275.985 262.398 275.471 263.855 273.5C264.594 272.5 265.408 269.5 264.842 267.5C263.932 264.278 259.534 261.903 257.429 260.766C257.33 260.713 257.236 260.662 257.147 260.614C257.133 260.606 257.124 260.592 257.124 260.575V260.575C257.124 260.541 257.088 260.52 257.058 260.536C257.057 260.537 257.055 260.538 257.054 260.539C257.04 260.546 257.023 260.546 257.009 260.539C257.007 260.538 257.006 260.537 257.004 260.536C256.975 260.52 256.938 260.541 256.938 260.575V260.575C256.938 260.592 256.93 260.606 256.915 260.614C256.827 260.662 256.733 260.713 256.634 260.766Z" stroke="black" stroke-width="6"/>
<path d="M256.634 260.766C254.528 261.903 250.13 264.278 249.221 267.5C248.655 269.5 249.468 272.5 250.207 273.5C251.665 275.472 252.65 275.986 256.938 276.479V276.5C256.97 276.497 257 276.493 257.031 276.49C257.062 276.493 257.093 276.497 257.124 276.5V276.479C261.412 275.986 262.397 275.472 263.855 273.5C264.594 272.5 265.408 269.5 264.842 267.5C263.932 264.278 259.534 261.903 257.429 260.766C257.321 260.708 257.219 260.653 257.124 260.602V260.5C257.094 260.517 257.063 260.534 257.031 260.551C256.999 260.534 256.968 260.517 256.938 260.5V260.602C256.843 260.653 256.742 260.708 256.634 260.766Z" fill="#F8F8F8"/>
<path d="M254.943 213.619C240.445 195.106 217.415 182.264 206.165 179.118C205.883 179.04 205.589 179.097 205.35 179.265C199.38 183.464 196.269 187.08 196.017 193.836C195.997 194.352 196.398 194.786 196.912 194.842C220.729 197.467 236.602 215.75 241.405 215.75C243.619 215.75 248.518 215.75 254.27 215.185C255.038 215.109 255.418 214.227 254.943 213.619Z" stroke="black" stroke-width="10"/>
<path d="M254.731 215.735C240.447 195.837 216.64 182.061 205.531 179C199.182 183.592 196.008 187.418 196.008 195.071C219.815 197.367 235.686 216.5 240.447 216.5C242.828 216.5 248.383 216.5 254.731 215.735Z" fill="#F8F8F8"/>
<path d="M260.027 213.629C274.194 195.121 296.704 182.278 307.714 179.124C308.001 179.041 308.3 179.101 308.543 179.275C314.372 183.47 317.409 187.086 317.656 193.838C317.674 194.354 317.275 194.786 316.763 194.844C293.482 197.477 277.968 215.75 273.272 215.75C271.109 215.75 266.323 215.75 260.703 215.186C259.942 215.11 259.561 214.237 260.027 213.629Z" stroke="black" stroke-width="10"/>
<path d="M260.241 215.735C274.208 195.837 297.488 182.061 308.352 179C314.56 183.592 317.664 187.418 317.664 195.071C294.384 197.367 278.864 216.5 274.208 216.5C271.88 216.5 266.448 216.5 260.241 215.735Z" fill="#F8F8F8"/>
<defs>
<linearGradient id="paint0_linear_702_9761" x1="173.84" y1="298.407" x2="173.84" y2="497.222" gradientUnits="userSpaceOnUse">
<stop stop-opacity="0"/>
<stop offset="1" stop-color="#9D9D9D"/>
</linearGradient>
<linearGradient id="paint1_linear_702_9761" x1="337.66" y1="298.407" x2="337.66" y2="497.222" gradientUnits="userSpaceOnUse">
<stop stop-opacity="0"/>
<stop offset="1" stop-color="#9D9D9D"/>
</linearGradient>
<linearGradient id="paint2_linear_702_9761" x1="256" y1="297" x2="256" y2="473" gradientUnits="userSpaceOnUse">
<stop stop-opacity="0"/>
<stop offset="1" stop-color="#9D9D9D"/>
</linearGradient>
</defs>
</svg>
