<svg width="512" height="512" viewBox="0 0 512 512" fill="none" xmlns="http://www.w3.org/2000/svg">
<path d="M180.313 177.374L175.121 168.827L175.121 168.827L180.313 177.374ZM335.279 179.638L341.221 171.595L341.221 171.595L335.279 179.638ZM185.853 174.035L195.737 175.552L185.853 174.035ZM185.798 173.999L180.467 165.538L185.798 173.999ZM185.845 174.085L195.73 175.594L185.845 174.085ZM185.868 174.098L195.157 170.394L185.868 174.098ZM328.115 174.096L336.202 179.978L328.115 174.096ZM328.159 173.998L321.425 181.391L328.159 173.998ZM328.122 174.017L338.032 172.674L328.122 174.017ZM399.103 275.825L402.699 285.156L399.103 275.825ZM399.59 274.482L390.514 278.68L399.59 274.482ZM328.133 174.093L318.22 175.412L328.133 174.093ZM109.301 274.558L118.289 278.942L109.301 274.558ZM109.642 275.819L105.735 285.025L105.735 285.025L109.642 275.819ZM118.289 278.942C136.938 240.706 149.483 220.157 159.421 207.825C168.99 195.95 176.196 191.575 185.504 185.921L175.121 168.827C165.177 174.868 155.607 180.683 143.848 195.276C132.458 209.41 119.124 231.606 100.313 270.175L118.289 278.942ZM395.506 266.494C380.986 272.091 357.634 275.736 329.475 277.659C301.596 279.564 269.96 279.73 239.453 278.815C208.96 277.9 179.757 275.912 156.785 273.543C145.292 272.358 135.445 271.087 127.821 269.824C119.837 268.502 115.237 267.331 113.548 266.614L105.735 285.025C109.91 286.796 116.752 288.263 124.553 289.555C132.714 290.907 142.994 292.227 154.734 293.438C178.229 295.86 207.918 297.878 238.854 298.806C269.776 299.733 302.105 299.576 330.838 297.613C359.292 295.669 385.2 291.9 402.699 285.156L395.506 266.494ZM329.337 187.681C335.38 192.145 342.303 197.229 351.81 209.704C361.521 222.446 374.044 243.077 390.514 278.68L408.666 270.283C391.87 233.976 378.643 211.917 367.717 197.581C356.588 182.977 347.989 176.594 341.221 171.595L329.337 187.681ZM321.425 181.391C324.076 183.805 326.844 185.839 329.337 187.681L341.221 171.595C338.584 169.647 336.657 168.212 334.893 166.605L321.425 181.391ZM338.045 172.774C338.041 172.741 338.036 172.707 338.032 172.674L318.213 175.36C318.215 175.378 318.218 175.395 318.22 175.412L338.045 172.774ZM257.257 218.09C271.018 218.09 288.642 211.218 302.811 203.922C310.141 200.148 317.051 195.997 322.715 192.027C328.088 188.26 333.253 184.033 336.202 179.978L320.029 168.213C319.158 169.41 316.359 172.058 311.235 175.65C306.402 179.038 300.282 182.729 293.656 186.141C279.914 193.216 265.929 198.09 257.257 198.09V218.09ZM176.579 177.801C178.41 182.396 182.4 186.992 186.676 190.922C191.241 195.117 197.168 199.491 204.111 203.463C217.958 211.385 236.525 218.09 257.257 218.09V198.09C240.772 198.09 225.605 192.718 214.042 186.103C208.281 182.807 203.584 179.297 200.21 176.197C198.523 174.646 197.248 173.272 196.359 172.155C195.41 170.963 195.148 170.373 195.157 170.394L176.579 177.801ZM175.968 172.518C175.965 172.537 175.963 172.556 175.96 172.575L195.73 175.594C195.733 175.58 195.735 175.566 195.737 175.552L175.968 172.518ZM185.504 185.921C187.274 184.845 189.163 183.698 191.129 182.46L180.467 165.538C178.662 166.676 176.909 167.741 175.121 168.827L185.504 185.921ZM195.737 175.552C197.046 167.02 187.72 160.969 180.467 165.538L191.129 182.46C183.928 186.997 174.668 180.989 175.968 172.518L195.737 175.552ZM181.823 164.943C189.001 161.779 196.927 167.761 195.73 175.594L175.96 172.575C174.762 180.422 182.7 186.413 189.89 183.244L181.823 164.943ZM195.157 170.394C192.741 164.334 186.191 163.018 181.823 164.943L189.89 183.244C185.531 185.165 178.991 183.852 176.579 177.801L195.157 170.394ZM336.579 168.758C335.009 166.272 332.319 164.465 329.118 164.144C325.728 163.803 322.206 165.22 320.029 168.213L336.202 179.978C334.027 182.968 330.508 184.384 327.12 184.044C323.923 183.723 321.235 181.918 319.668 179.435L336.579 168.758ZM334.893 166.605C328.001 160.327 316.951 166.047 318.213 175.36L338.032 172.674C339.289 181.947 328.287 187.641 321.425 181.391L334.893 166.605ZM402.699 285.156C409.523 282.526 410.91 275.134 408.666 270.283L390.514 278.68C388.751 274.868 389.75 268.713 395.506 266.494L402.699 285.156ZM318.22 175.412C316.805 164.772 330.857 159.695 336.579 168.758L319.668 179.435C325.395 188.506 339.462 183.425 338.045 172.774L318.22 175.412ZM100.313 270.175C99.3987 272.049 98.7861 274.655 99.4496 277.536C100.187 280.739 102.4 283.609 105.735 285.025L113.548 266.614C116.383 267.817 118.307 270.301 118.939 273.048C119.498 275.474 118.965 277.556 118.289 278.942L100.313 270.175Z" fill="black"/>
<path d="M178.398 204.133C172.058 185.752 181.241 176.299 186.17 174.133C190.08 183.966 220.336 208.133 257.562 208.133C280 208.133 320.795 184.633 328.425 174.133C348.313 205.633 331.873 219.771 326.895 232.633C307.545 282.633 208.575 291.633 178.398 204.133Z" fill="#FBFBFB"/>
<path d="M109.172 275.5C150.477 190.636 163.76 188.133 186.173 174C179.034 220.133 231.048 223.633 233.088 223.633C235.128 223.633 248.896 225.633 281.533 223.633C303.46 222.289 331.993 200 328.423 174C341.706 186.133 360.064 188.133 400.349 275.5C336.607 301 128.55 285.5 109.172 275.5Z" fill="#E0E0E0"/>
<path d="M376.874 434.503C261.172 475.767 167.27 450.566 129.636 434.384C129.27 434.227 129.053 433.902 129.063 433.504C129.491 416.203 146.981 361.109 158.631 357.641C170.427 354.13 336.535 352.118 348.33 357.635C360.066 363.125 347.369 366.882 377.445 433.117C377.686 433.65 377.425 434.306 376.874 434.503Z" stroke="black" stroke-width="20"/>
<path d="M377.907 434.133C261.13 476.133 166.406 450.351 129.055 434.133C129.055 417.584 146.836 361.152 158.631 357.641C170.427 354.13 336.535 352.118 348.33 357.635C360.125 363.153 347.239 366.921 377.907 434.133Z" fill="white"/>
<path d="M75.1723 367.525C78.0705 347.338 92.1374 308.297 99.7527 288.837C100.1 287.95 101.476 287.993 101.929 288.831C109.659 303.146 143.659 309.117 170.825 311.987C171.403 312.048 171.813 312.525 171.717 313.098C166.468 344.268 157.536 466.137 146.257 459.902C131.52 451.754 71.3727 393.99 75.1723 367.525Z" stroke="black" stroke-width="20"/>
<path d="M433.831 367.525C430.997 347.361 417.255 308.386 409.794 288.904C409.451 288.007 408.057 288.049 407.604 288.895C399.973 303.161 366.76 309.118 340.208 311.985C339.633 312.047 339.225 312.522 339.319 313.092C344.457 344.253 353.201 466.138 364.243 459.902C378.67 451.754 437.551 393.99 433.831 367.525Z" stroke="black" stroke-width="20"/>
<path d="M75.1723 367.525C78.212 346.353 93.5369 304.442 100.819 286.133C105.566 302.611 142.917 309.102 171.889 312.098C166.665 341.559 157.661 466.206 146.257 459.902C131.52 451.754 71.3727 393.99 75.1723 367.525Z" fill="#BBBBBB"/>
<path d="M433.831 367.525C430.856 346.353 415.853 304.442 408.724 286.133C404.077 302.611 367.512 309.102 339.151 312.098C344.265 341.559 353.08 466.206 364.243 459.902C378.67 451.754 437.551 393.99 433.831 367.525Z" fill="#BBBBBB"/>
<path d="M328.919 351.326C329.312 376.293 326.467 403.956 315.31 418.171C315.176 418.341 314.997 418.458 314.786 418.511C302.191 421.665 278.75 423.277 255.012 423.123C231.274 423.277 207.834 421.665 195.238 418.511C195.028 418.458 194.848 418.341 194.714 418.171C183.557 403.956 180.713 376.293 181.105 351.326C180.951 343.568 181.308 336.135 182.229 329.633C182.74 323.757 183.374 318.434 184.031 313.983C184.103 313.494 184.523 313.138 185.017 313.158C185.474 313.177 186.078 313.205 186.82 313.242C186.859 313.244 186.896 313.223 186.915 313.189V313.189C186.933 313.155 186.97 313.134 187.009 313.137C192.674 313.494 198.29 313.795 203.83 314.046C216.391 314.566 234.172 315.118 255.012 315.138C275.852 315.118 293.633 314.566 306.194 314.046C311.734 313.795 317.35 313.494 323.015 313.137C323.054 313.134 323.091 313.155 323.109 313.189V313.189C323.128 313.223 323.165 313.244 323.204 313.242C323.946 313.205 324.55 313.177 325.007 313.158C325.501 313.138 325.921 313.494 325.993 313.983C326.65 318.434 327.284 323.757 327.796 329.633C328.716 336.135 329.073 343.568 328.919 351.326Z" stroke="black" stroke-width="20"/>
<path d="M328.919 351.326C329.314 376.446 326.432 404.295 315.104 418.43C302.588 421.638 278.951 423.278 255.012 423.123C231.073 423.278 207.436 421.638 194.92 418.43C183.592 404.295 180.71 376.446 181.105 351.326C180.951 343.568 181.308 336.135 182.229 329.633C182.773 323.378 183.456 317.751 184.158 313.133C184.534 313.133 185.458 313.174 186.884 313.245C186.905 313.208 186.925 313.17 186.945 313.133C192.632 313.492 198.269 313.794 203.83 314.046C216.391 314.566 234.172 315.118 255.012 315.138C275.852 315.118 293.633 314.566 306.194 314.046C311.755 313.794 317.392 313.492 323.079 313.133C323.099 313.17 323.119 313.208 323.14 313.245C324.567 313.174 325.49 313.133 325.866 313.133C326.568 317.751 327.251 323.378 327.796 329.633C328.716 336.135 329.073 343.568 328.919 351.326Z" fill="#BBBBBB"/>
<path d="M404.947 281.269C273.766 307.104 150.663 292.123 104.833 281.265C104.477 281.18 104.126 281.3 103.896 281.585C103.015 282.675 101.772 284.568 101.55 286.244C101.508 286.558 101.657 286.852 101.906 287.049L101.926 287.065C105.595 289.968 122.459 303.312 222.243 308.691C361.402 312.773 407.482 287.257 407.482 286.746C407.482 286.271 407.482 284.465 405.989 281.742C405.786 281.373 405.36 281.188 404.947 281.269Z" stroke="black" stroke-width="20"/>
<path d="M238.18 296.133C192.226 298.533 125.997 289.133 103.26 284.133C101.764 284.966 99.8489 287.133 104.157 289.133C109.542 291.633 164.587 307.633 238.18 310.633C247.869 313.633 257.379 313.133 267.247 310.633C340.841 307.633 392.316 291.633 397.701 289.133C402.009 287.133 400.094 284.966 398.598 284.133C375.861 289.133 313.202 298.533 267.247 296.133C260.067 293.633 245.32 293.633 238.18 296.133Z" fill="#D2D2D2"/>
</svg>
