<svg width="512" height="512" viewBox="0 0 512 512" fill="none" xmlns="http://www.w3.org/2000/svg">
<path d="M381.626 258.425L375.046 265.955L375.046 265.955L381.626 258.425ZM129.994 266.861L124.36 275.123L124.914 275.501L125.513 275.801L129.994 266.861ZM116.832 259.423L121.396 250.525L121.396 250.525L116.832 259.423ZM103.499 249.853L93.6676 251.684L93.6676 251.684L103.499 249.853ZM222 158.095L220.484 148.21L220.483 148.21L222 158.095ZM224.177 157.751L225.756 167.626L225.756 167.626L224.177 157.751ZM240.981 156.65L240.766 146.652L240.766 146.652L240.981 156.65ZM274.004 158.99L278.085 149.86L278.085 149.86L274.004 158.99ZM274.609 161.264L284.368 159.082L284.368 159.082L274.609 161.264ZM346.997 233.771L348.896 223.953L348.5 223.876L348.1 223.832L346.997 233.771ZM234.004 156.758L234 166.758L234.004 156.758ZM233.993 156.766L233.961 146.766L233.993 156.766ZM408.045 289.832L417.98 290.968L408.045 289.832ZM407.824 290.287L413.681 298.392L407.824 290.287ZM370.12 247.415L378.643 242.185L370.12 247.415ZM369.995 246.954L359.997 247.131L369.995 246.954ZM388.207 250.896C385.358 248.406 382.936 246.287 381.064 244.541C380.133 243.672 379.439 242.989 378.954 242.472C378.383 241.862 378.417 241.816 378.643 242.185L361.597 252.646C363.059 255.027 365.585 257.452 367.419 259.163C369.581 261.181 372.28 263.538 375.046 265.955L388.207 250.896ZM417.98 290.968C418.588 285.651 416.277 280.948 414.44 277.941C412.399 274.601 409.638 271.293 406.803 268.256C401.121 262.169 393.89 255.862 388.207 250.896L375.046 265.955C380.918 271.087 387.328 276.702 392.183 281.903C394.616 284.511 396.347 286.689 397.373 288.368C398.603 290.382 397.934 290.232 398.109 288.696L417.98 290.968ZM125.513 275.801C131.391 278.748 140.136 281.194 150.097 283.328C160.306 285.514 172.653 287.544 186.266 289.401C213.508 293.117 246.297 296.207 278.155 298.461C310.02 300.716 341.108 302.145 364.97 302.522C376.88 302.71 387.129 302.639 394.826 302.26C398.653 302.071 402.045 301.798 404.775 301.404C406.133 301.207 407.517 300.955 408.801 300.608C409.839 300.327 411.83 299.729 413.681 298.392L401.967 282.182C403.146 281.329 404.04 281.177 403.577 281.302C403.359 281.361 402.84 281.476 401.915 281.609C400.082 281.874 397.4 282.109 393.843 282.284C386.773 282.632 377.015 282.71 365.286 282.525C341.873 282.155 311.161 280.746 279.567 278.511C247.967 276.275 215.639 273.223 188.97 269.584C175.627 267.764 163.821 265.813 154.286 263.771C144.503 261.676 137.913 259.645 134.476 257.922L125.513 275.801ZM112.268 268.32C116.732 270.61 120.904 272.766 124.36 275.123L135.629 258.6C130.957 255.414 125.63 252.697 121.396 250.525L112.268 268.32ZM93.6676 251.684C94.3173 255.174 96.2701 257.639 97.6656 259.08C99.1351 260.598 100.824 261.834 102.314 262.81C105.257 264.738 108.988 266.638 112.268 268.32L121.396 250.525C117.788 248.674 115.133 247.299 113.272 246.079C112.848 245.802 112.536 245.577 112.314 245.403C112.087 245.225 112.012 245.146 112.035 245.169C112.052 245.186 112.26 245.4 112.514 245.822C112.774 246.254 113.139 246.997 113.33 248.023L93.6676 251.684ZM220.483 148.21C172.493 155.577 140.735 179.282 121.112 201.569C111.333 212.675 104.555 223.436 100.221 231.687C98.0554 235.81 96.4689 239.366 95.4112 242.093C94.8878 243.442 94.4565 244.684 94.1475 245.75C93.9972 246.269 93.8348 246.886 93.7128 247.53C93.6926 247.637 93.2653 249.523 93.6676 251.684L113.33 248.023C113.566 249.294 113.481 250.283 113.461 250.513C113.43 250.891 113.381 251.159 113.363 251.256C113.324 251.457 113.305 251.498 113.358 251.316C113.455 250.979 113.673 250.317 114.057 249.326C114.815 247.373 116.079 244.507 117.927 240.987C121.622 233.953 127.528 224.547 136.122 214.786C153.244 195.339 180.987 174.507 223.517 167.979L220.483 148.21ZM222.597 147.877C221.901 147.988 221.211 148.099 220.484 148.21L223.517 167.979C224.317 167.856 225.068 167.736 225.756 167.626L222.597 147.877ZM233.961 146.766C229.373 146.781 225.985 147.335 222.597 147.877L225.756 167.626C229.134 167.085 231.151 166.775 234.026 166.766L233.961 146.766ZM234 166.758C236.074 166.758 238.586 166.704 241.197 166.647L240.766 146.652C238.079 146.71 235.814 146.758 234.007 146.758L234 166.758ZM241.197 166.647C246.76 166.527 253.068 166.395 258.764 166.63C264.962 166.886 268.639 167.545 269.923 168.119L278.085 149.86C272.855 147.522 265.524 146.892 259.59 146.647C253.156 146.381 246.209 146.535 240.766 146.652L241.197 166.647ZM269.922 168.119C267.913 167.22 266.743 165.9 266.282 165.335C265.739 164.671 265.401 164.08 265.233 163.766C264.897 163.139 264.717 162.631 264.668 162.492C264.55 162.156 264.503 161.948 264.537 162.082C264.59 162.289 264.676 162.668 264.85 163.446L284.368 159.082C284.225 158.443 284.062 157.709 283.918 157.145C283.854 156.893 283.722 156.386 283.53 155.84C283.444 155.596 283.23 155.006 282.862 154.32C282.678 153.977 282.325 153.361 281.768 152.679C281.292 152.097 280.109 150.765 278.085 149.86L269.922 168.119ZM264.85 163.446C267.38 174.763 280.699 236.471 345.893 243.71L348.1 223.832C298.079 218.278 287.133 171.451 284.368 159.082L264.85 163.446ZM345.098 243.589C355.44 245.589 359.244 247.925 360.338 248.84C360.773 249.203 360.566 249.162 360.314 248.583C360.053 247.98 360.001 247.387 359.997 247.131L379.994 246.778C379.971 245.463 379.792 243.226 378.661 240.62C377.539 238.036 375.72 235.631 373.166 233.496C368.284 229.415 360.608 226.218 348.896 223.953L345.098 243.589ZM243.686 159.241C242.563 163.629 238.604 166.759 234 166.758L234.007 146.758C229.399 146.756 225.435 149.89 224.311 154.282L243.686 159.241ZM234.026 166.766C238.533 166.751 242.544 163.706 243.686 159.241L224.311 154.282C225.452 149.822 229.458 146.78 233.961 146.766L234.026 166.766ZM398.109 288.696C398.11 288.693 398.211 287.504 398.809 286.122C399.552 284.403 400.718 283.084 401.967 282.182L413.681 298.392C415.094 297.371 416.359 295.926 417.166 294.06C417.827 292.53 417.956 291.174 417.98 290.968L398.109 288.696ZM378.643 242.185C379.687 243.885 379.972 245.568 379.994 246.778L359.997 247.131C360.024 248.668 360.383 250.667 361.597 252.646L378.643 242.185Z" fill="black"/>
<path d="M150.554 447.33C134.678 440.566 128.767 427.303 127.77 421.423C127.759 421.359 127.749 421.315 127.726 421.255C124.355 412.453 80.8887 347.291 134.879 333.83C189.027 320.33 334.371 323.83 340.071 326.83C345.77 329.83 379.969 409.33 367.144 427.33L366.819 427.788C354.244 445.441 349.669 451.864 305.872 455.83C236.05 459.83 170.503 455.83 150.554 447.33Z" stroke="black" stroke-width="20"/>
<path d="M150.554 447.33C134.594 440.53 128.705 427.164 127.755 421.33C124.609 412.832 80.7318 347.33 134.879 333.83C189.027 320.33 334.371 323.83 340.071 326.83C345.77 329.83 379.969 409.33 367.144 427.33L366.819 427.788C354.244 445.441 349.669 451.864 305.872 455.83C236.05 459.83 170.503 455.83 150.554 447.33Z" fill="#FAFAFA"/>
<path d="M402.012 317.167C372.612 325.906 306.777 322.315 276.884 319.358C276.681 319.338 276.483 319.382 276.307 319.485C264.953 326.13 269.122 344.987 267.013 364.828C264.903 384.671 258.606 388.764 250.2 419.591C250.083 420.019 250.235 420.475 250.621 420.693C272.87 433.272 356.39 430.323 362.709 429.828C369.053 429.331 410.096 423.889 417.872 409.078C417.959 408.914 417.991 408.725 417.973 408.541C414.745 374.264 403.12 362.814 405.241 357.828C407.328 352.919 406.341 338.853 403.286 317.996C403.197 317.386 402.603 316.991 402.012 317.167Z" stroke="black" stroke-width="20"/>
<path d="M403.114 316.828C374.192 326.028 306.709 322.328 276.582 319.328C264.886 325.828 269.139 344.828 267.013 364.828C264.886 384.828 258.506 388.828 250 420.328C271.266 433.328 356.329 430.328 362.709 429.828C369.089 429.328 410.557 423.828 418 408.828C414.81 374.328 403.114 362.828 405.241 357.828C407.367 352.828 406.304 338.328 403.114 316.828Z" fill="#BCBCBC"/>
<path d="M261.181 318.642C221.558 313.037 124.506 296.814 109.69 286.81C109.091 286.405 108.193 286.591 107.903 287.253C101.415 302.084 77.6773 343.403 61.2376 371.931C61.0856 372.195 61.0576 372.496 61.1775 372.776C74.1597 403.07 196.031 426.797 202.5 420.328C208.967 413.861 221.375 403.433 261.886 320.092C262.183 319.482 261.853 318.738 261.181 318.642Z" stroke="black" stroke-width="20"/>
<path d="M262.499 318.832C222.499 313.232 118.167 296.344 108.5 286.344C103 299.844 78 343.344 61 372.844C73 403.344 195.999 426.832 202.499 420.332C208.999 413.832 221.499 403.332 262.499 318.832Z" fill="#BCBCBC"/>
<path d="M394.604 296.344C323.846 305.844 186.491 286.844 124.057 273.344C109.953 269.326 109.06 256.788 104.485 254.395C103.981 254.131 103.436 254.53 103.365 255.095C101.671 268.584 104.503 273.075 107.859 278.811C107.952 278.97 108.07 279.092 108.232 279.178C134.7 293.159 251.109 310.854 286.385 314.344C321.657 317.833 384.852 312.874 400.704 312.844C400.807 312.844 400.9 312.861 400.999 312.892C410.28 315.817 416.445 313.33 414.375 310.844C412.294 308.344 417.497 292.844 413.335 291.844C409.172 290.844 400.848 295.506 394.604 296.344Z" stroke="black" stroke-width="20"/>
<path d="M394.604 296.344C323.846 305.844 186.491 286.844 124.057 273.344C108.002 261.5 109 255.055 103.502 254.055C101.501 268.555 104.499 273.055 108.002 279.055C134.016 293.055 251.006 310.844 286.385 314.344C321.765 317.844 385.239 312.844 400.848 312.844C410.213 315.844 416.456 313.344 414.375 310.844C412.294 308.344 417.497 292.844 413.335 291.844C409.172 290.844 400.848 295.506 394.604 296.344Z" fill="#C8C8C8"/>
<path d="M404.945 314.766C400.484 306.221 405.211 294.416 408.131 290.855C406.802 290.686 401.759 292.378 397.78 295.943C389.018 306.625 399.367 315.784 404.945 314.766Z" fill="black"/>
<path d="M254.285 156C249.781 156.014 226.26 157.363 221.756 158.056C131.157 171.995 100.555 248.678 103.151 250.105C109.115 253.384 114.668 257.112 122.169 265.507C159.702 284.365 395.5 297.5 405 285.5C407.006 274.249 373.052 253.428 369.882 247.442C366.88 248.789 320.742 248.519 314.336 247.442C263.793 223.35 259.79 155.983 254.285 156Z" fill="#D5D5D5"/>
<path d="M314.548 247.526C268.59 231.062 253.601 161.89 255.101 156.048C265.092 156.052 266.011 155.374 274.087 159C275.086 159.449 282.573 226.862 347.019 234.049C370 238.512 370 245.745 370 247.526C366.003 250.219 320.943 248.604 314.548 247.526Z" fill="#F8F8F8"/>
</svg>
