<svg width="512" height="512" viewBox="0 0 512 512" fill="none" xmlns="http://www.w3.org/2000/svg">
<path d="M375.983 430.371C262.544 471.631 170.478 446.436 133.575 430.253C133.213 430.095 132.998 429.772 133.008 429.376C133.425 412.081 150.576 356.976 162 353.508C173.565 349.997 336.435 347.985 348 353.502C359.507 358.992 347.056 362.75 376.551 428.995C376.787 429.524 376.528 430.173 375.983 430.371Z" stroke="black" stroke-width="20"/>
<path d="M377 430C262.5 472 169.623 446.218 133 430C133 413.451 150.435 357.019 162 353.508C173.565 349.997 336.435 347.985 348 353.502C359.565 359.02 346.93 362.788 377 430Z" fill="white"/>
<path d="M80.1689 363.392C83.0077 343.226 96.7743 304.246 104.247 284.766C104.59 283.87 105.983 283.912 106.435 284.757C114.073 299.027 147.345 304.986 173.942 307.853C174.517 307.915 174.926 308.389 174.832 308.96C169.685 340.122 160.927 462.005 149.868 455.769C135.418 447.621 76.4435 389.857 80.1689 363.392Z" stroke="black" stroke-width="20"/>
<path d="M431.835 363.392C429.059 343.25 415.61 304.336 408.289 284.833C407.95 283.929 406.539 283.969 406.087 284.822C398.547 299.042 366.047 304.987 340.052 307.851C339.479 307.914 339.072 308.386 339.164 308.955C344.202 340.108 352.776 462.005 363.603 455.769C377.749 447.621 435.482 389.857 431.835 363.392Z" stroke="black" stroke-width="20"/>
<path d="M80.1689 363.392C83.1493 342.22 98.1755 300.309 105.316 282C109.97 298.478 146.593 304.969 175 307.965C169.877 337.426 161.049 462.074 149.868 455.769C135.418 447.621 76.4435 389.857 80.1689 363.392Z" fill="#BBBBBB"/>
<path d="M431.835 363.392C428.917 342.22 414.207 300.309 407.217 282C402.66 298.478 366.809 304.969 339 307.965C344.015 337.426 352.657 462.074 363.603 455.769C377.749 447.621 435.482 389.857 431.835 363.392Z" fill="#BBBBBB"/>
<path d="M328.966 347.193C329.351 372.158 326.562 399.818 315.625 414.034C315.492 414.207 315.312 414.326 315.1 414.38C302.748 417.533 279.769 419.144 256.5 418.99C233.231 419.144 210.252 417.533 197.9 414.38C197.688 414.326 197.508 414.207 197.375 414.034C186.438 399.818 183.649 372.158 184.034 347.194C183.883 339.435 184.233 332.002 185.136 325.501C185.637 319.625 186.259 314.304 186.903 309.853C186.974 309.362 187.394 309.005 187.889 309.026C188.335 309.045 188.92 309.073 189.637 309.109C189.676 309.111 189.712 309.091 189.73 309.056V309.056C189.749 309.022 189.785 309.002 189.824 309.004C195.378 309.362 200.884 309.662 206.316 309.913C218.632 310.433 236.066 310.985 256.5 311.005C276.934 310.985 294.368 310.433 306.684 309.913C312.116 309.662 317.622 309.362 323.176 309.004C323.215 309.002 323.251 309.022 323.27 309.056V309.056C323.288 309.091 323.324 309.111 323.363 309.109C324.08 309.073 324.665 309.045 325.111 309.026C325.606 309.005 326.026 309.362 326.097 309.853C326.741 314.304 327.363 319.625 327.864 325.501C328.767 332.003 329.117 339.435 328.966 347.193Z" stroke="black" stroke-width="20"/>
<path d="M328.966 347.193C329.353 372.313 326.527 400.162 315.42 414.297C303.148 417.505 279.972 419.145 256.5 418.99C233.028 419.145 209.852 417.505 197.58 414.297C186.473 400.162 183.647 372.313 184.034 347.194C183.883 339.435 184.233 332.002 185.136 325.501C185.67 319.245 186.339 313.618 187.028 309C187.396 309 188.302 309.041 189.701 309.113C189.721 309.075 189.74 309.037 189.76 309C195.336 309.359 200.863 309.661 206.316 309.913C218.632 310.433 236.066 310.985 256.5 311.005C276.934 310.985 294.368 310.433 306.684 309.913C312.137 309.661 317.664 309.359 323.24 309C323.26 309.037 323.279 309.075 323.299 309.113C324.698 309.041 325.604 309 325.972 309C326.661 313.618 327.33 319.245 327.864 325.501C328.767 332.003 329.117 339.435 328.966 347.193Z" fill="#BBBBBB"/>
<path d="M403.493 277.141C274.896 302.966 154.221 287.994 109.272 277.136C108.912 277.049 108.555 277.172 108.325 277.463C107.461 278.556 106.248 280.445 106.033 282.117C105.993 282.428 106.138 282.719 106.383 282.916L106.403 282.932C109.999 285.835 126.535 299.179 224.373 304.558C360.819 308.64 406 283.124 406 282.614C406 282.139 406 280.337 404.542 277.621C404.341 277.245 403.91 277.057 403.493 277.141Z" stroke="black" stroke-width="20"/>
<path d="M255.934 232.347C205.911 189.648 206.522 169.473 210.467 163.905C210.498 163.862 210.531 163.824 210.568 163.787L213.428 160.942C213.767 160.605 213.754 160.111 213.28 160.043C210.276 159.611 199.515 162.498 195.33 165.617C195.12 165.774 194.993 166.019 194.967 166.28C190.733 207.867 222.812 233.336 240.795 243.223C240.942 243.304 241.101 243.343 241.269 243.343H248.099C248.365 243.343 248.618 243.24 248.803 243.05C250.776 241.035 254.473 236.86 256.193 233.517C256.396 233.123 256.272 232.635 255.934 232.347Z" stroke="black" stroke-width="20"/>
<path d="M256.739 241.582C286.519 207.874 313.836 184.502 308.152 164.457C308.107 164.296 308.019 164.148 307.9 164.031L305.164 161.309C304.825 160.972 304.839 160.478 305.312 160.41C308.316 159.978 319.069 162.862 323.257 165.981C323.471 166.14 323.598 166.39 323.622 166.655C327.732 211.705 289.483 235.074 277.723 242.714C277.56 242.819 277.383 242.867 277.189 242.867H269.986C267.106 242.867 257.875 243.599 256.627 242.209C256.464 242.027 256.577 241.765 256.739 241.582Z" stroke="black" stroke-width="20"/>
<path d="M113.925 270.477C152.716 189.362 166.178 184.22 186.779 171.278C187.558 170.789 188.559 171.534 188.364 172.432C179.249 214.367 234.016 250.867 235.976 250.867H280.706C280.88 250.867 281.058 250.82 281.209 250.734C319.131 229.035 331.125 198.097 328.79 172.644C328.704 171.709 329.854 171.111 330.576 171.712C343.403 182.405 361.436 188.549 398.561 270.398C398.795 270.914 398.605 271.529 398.077 271.736C335.286 296.415 137.266 281.684 114.264 271.73C113.771 271.516 113.693 270.961 113.925 270.477Z" stroke="black" stroke-width="20"/>
<path d="M404.193 277C274.795 303.129 153.289 287.887 108.711 277C107.807 278.021 106 280.572 106 282.614C108.711 284.655 122.265 298.944 224.373 304.558C360.819 308.64 406 283.124 406 282.614C406 282.103 406 280.062 404.193 277Z" fill="#D0D0D0"/>
<path d="M252.971 288C257.063 288 260.132 290.253 258.598 291.379C255.529 290.253 249.37 293.632 248.346 299.264C247.323 304.897 251.927 306.023 258.066 307.713C257.554 309.966 242.936 309.403 242.212 304.897C240.673 295.322 247.856 288 252.971 288Z" fill="black"/>
<path d="M266.029 288C261.937 288 258.868 290.253 260.402 291.379C263.471 290.253 269.63 293.632 270.654 299.264C271.677 304.897 267.073 306.023 260.934 307.713C261.446 309.966 276.064 309.403 276.788 304.897C278.327 295.322 271.144 288 266.029 288Z" fill="black"/>
<path d="M256.517 232.843C205.717 189.643 206.512 169.343 210.512 163.843L214.012 160.361C213.012 158.867 199.409 162.267 195.01 165.867C190.502 207.867 223.014 233.51 241.014 243.343H248.514C250.514 241.343 254.914 236.443 256.517 232.843Z" fill="white"/>
<path d="M256.487 241.867C286.487 207.867 314.077 184.367 308.081 164.21L304.581 160.728C305.581 159.234 319.184 162.634 323.582 166.234C328 211.867 288.996 235.367 277.486 242.867H269.986C266.895 242.867 256.487 243.71 256.487 241.867Z" fill="white"/>
<path d="M113.5 271.367C154 186.503 167.024 184 189 169.867C177 212.867 233.976 250.867 235.976 250.867H280.976C320.476 228.367 331.976 195.867 328.476 169.867C341.5 182 359.5 184 399 271.367C336.5 296.867 132.5 281.367 113.5 271.367Z" fill="#E0E0E0"/>
</svg>
